<svg width="200" height="200" viewBox="0 0 200 200" xmlns="http://www.w3.org/2000/svg">
  <!-- Background -->
  <rect width="200" height="200" fill="#121421" rx="20"/>
  
  <!-- First R (left) -->
  <g fill="#ffffff">
    <path d="M40 50 L40 160 L56 160 L56 115 L85 115 L85 99 L56 99 L56 66 L90 66 Q102 66 102 78 L102 90 Q102 102 90 102 L80 102 L102 124 L102 160 L118 160 L118 124 L96 102 Q108 96 108 78 L108 66 Q108 50 90 50 Z"/>
  </g>
  
  <!-- Second R (right) -->
  <g fill="#ffffff">
    <path d="M130 50 L130 160 L146 160 L146 115 L175 115 L175 99 L146 99 L146 66 L180 66 Q192 66 192 78 L192 90 Q192 102 180 102 L170 102 L192 124 L192 160 L208 160 L208 124 L186 102 Q198 96 198 78 L198 66 Q198 50 180 50 Z"/>
  </g>
</svg>
